<?xml version="1.0" standalone="no"?>
<!DOCTYPE svg PUBLIC "-//W3C//DTD SVG 20010904//EN"
 "http://www.w3.org/TR/2001/REC-SVG-20010904/DTD/svg10.dtd">
<svg version="1.0" xmlns="http://www.w3.org/2000/svg"
 width="529.000000pt" height="529.000000pt" viewBox="0 0 529.000000 529.000000"
 preserveAspectRatio="xMidYMid meet">
<metadata>
Created by potrace 1.14, written by Peter Selinger 2001-2017
</metadata>
<g transform="translate(0.000000,529.000000) scale(0.100000,-0.100000)"
fill="#000000" stroke="none">
<path d="M4173 3780 c-78 -26 -143 -85 -180 -166 -39 -83 -38 -193 2 -282 42
-94 126 -161 223 -177 31 -5 42 -11 38 -21 -7 -18 -946 -1586 -958 -1599 -10
-11 -8 1 21 150 11 55 23 117 27 139 3 21 7 46 9 55 18 91 95 493 99 517 3 17
13 66 21 110 9 43 18 90 21 104 2 14 18 95 34 180 16 85 32 173 36 195 3 22 8
43 9 46 2 3 7 26 10 52 5 35 3 47 -7 48 -45 3 -679 1 -682 -2 -3 -2 -7 -29
-11 -59 -3 -30 -7 -62 -10 -70 -2 -8 -6 -37 -10 -65 -6 -56 -14 -106 -21 -147
-6 -28 -6 -28 -87 42 -44 39 -83 67 -86 63 -10 -13 -151 -135 -152 -132 -4 20
-7 43 -13 93 -4 32 -9 68 -12 80 -4 23 -11 77 -20 146 -3 25 -7 47 -10 49 -3
3 -1415 5 -1461 2 -10 -1 -13 -74 -13 -331 l0 -331 -108 3 -107 3 0 329 1 329
-61 -126 c-34 -69 -80 -166 -103 -214 -43 -92 -97 -207 -322 -678 -34 -71 -77
-161 -95 -200 -18 -38 -69 -145 -113 -237 -44 -92 -77 -169 -74 -171 4 -2 178
-3 387 -3 l380 1 0 330 1 330 104 0 105 0 3 -330 2 -330 383 1 c210 1 384 2
387 3 3 0 5 354 5 786 0 432 2 785 6 785 3 0 6 -6 6 -12 0 -7 3 -24 6 -38 7
-32 56 -285 63 -325 2 -16 7 -37 10 -46 2 -10 6 -31 9 -48 2 -17 6 -38 9 -48
3 -10 7 -36 11 -58 3 -22 12 -71 20 -110 8 -38 16 -83 19 -100 3 -16 22 -113
41 -215 20 -102 38 -198 41 -215 3 -16 13 -73 24 -125 21 -105 27 -137 36
-192 5 -27 10 -36 19 -30 8 4 58 48 112 98 54 50 110 102 124 115 36 32 219
200 239 219 9 8 40 37 68 63 l52 48 57 -53 c76 -70 184 -170 199 -183 38 -34
219 -200 277 -255 l69 -65 411 0 412 0 89 162 89 163 90 -163 89 -162 406 0
c291 1 406 4 405 12 -1 6 -17 35 -34 64 -18 30 -40 68 -49 84 -10 17 -63 107
-120 200 -57 94 -111 184 -120 200 -10 17 -159 266 -333 555 l-315 524 64 16
c143 36 237 157 237 305 0 70 -8 108 -33 160 -69 142 -236 207 -397 155z m162
-255 c31 -30 33 -77 5 -105 -11 -11 -26 -20 -32 -21 -7 0 -21 -2 -30 -4 -26
-5 -68 43 -68 77 0 36 40 78 75 78 14 0 37 -11 50 -25z"/>
</g>
</svg>
